<?xml version="1.0" standalone="no"?>
<!DOCTYPE svg PUBLIC "-//W3C//DTD SVG 20010904//EN"
 "http://www.w3.org/TR/2001/REC-SVG-20010904/DTD/svg10.dtd">
<svg version="1.0" xmlns="http://www.w3.org/2000/svg"
 width="1280.000000pt" height="920.000000pt" viewBox="0 0 1280.000000 920.000000"
 preserveAspectRatio="xMidYMid meet">
<g transform="translate(0.000000,920.000000) scale(0.100000,-0.100000)"
fill="#000000" stroke="none">
<path d="M895 9188 c-300 -46 -366 -63 -502 -129 -151 -74 -275 -204 -331
-346 -36 -93 -65 -248 -59 -323 21 -288 152 -653 372 -1035 213 -369 566 -838
992 -1314 196 -220 777 -802 1023 -1027 1599 -1458 3577 -2817 5510 -3784 873
-437 1612 -740 2315 -951 710 -213 1355 -310 1730 -261 254 34 406 82 544 173
158 104 249 244 290 444 26 123 26 158 1 303 -28 158 -63 284 -117 422 -291
738 -1048 1697 -2167 2747 l-139 130 16 135 c64 511 38 965 -83 1447 -368
1464 -1568 2574 -3057 2826 -875 149 -1786 -15 -2556 -459 l-97 -56 -152 71
c-1133 530 -2168 870 -2918 958 -96 12 -211 26 -255 31 -95 12 -276 11 -360
-2z m2045 -1349 c178 -30 438 -98 667 -175 206 -69 253 -88 253 -104 0 -5 -37
-48 -82 -97 -306 -330 -569 -749 -732 -1168 -54 -138 -59 -148 -73 -152 -6 -2
-58 49 -116 114 -622 696 -858 1201 -678 1450 56 77 161 131 296 153 89 14
323 4 465 -21z m7218 -4531 c144 -153 371 -437 484 -608 190 -289 275 -505
266 -679 -5 -102 -28 -161 -86 -219 -85 -85 -211 -122 -422 -122 -240 0 -492
49 -882 171 -155 48 -387 134 -401 148 -7 7 29 47 113 128 331 317 579 656
786 1076 43 86 81 157 85 157 4 0 30 -24 57 -52z"/>
<path d="M2820 4286 c0 -8 11 -70 25 -138 217 -1089 882 -2020 1839 -2572 772
-446 1654 -603 2551 -455 137 23 206 38 218 49 5 4 -74 51 -175 105 -1501 803
-3091 1877 -4325 2922 -67 57 -124 103 -127 103 -3 0 -6 -6 -6 -14z"/>
</g>
</svg>
